<svg xmlns="http://www.w3.org/2000/svg" width="300" height="200" viewBox="0 0 300 200">
  <rect width="300" height="200" fill="#f0f0f0" rx="8"/>
  <!-- Left panel -->
  <rect x="20" y="30" width="120" height="120" fill="#fff" stroke="#ddd" stroke-width="1" rx="4"/>
  <text x="80" y="50" font-family="sans-serif" font-size="9" fill="#888" text-anchor="middle">Vencimento Base</text>
  <rect x="35" y="56" width="90" height="14" fill="#fff" stroke="#ccc" stroke-width="1" rx="2"/>
  <text x="80" y="66" font-family="monospace" font-size="9" fill="#333" text-anchor="middle">900</text>
  <!-- Slider -->
  <line x1="35" y1="82" x2="125" y2="82" stroke="#ddd" stroke-width="2" stroke-linecap="round"/>
  <circle cx="42" cy="82" r="4" fill="#2196F3"/>
  <!-- Right panel -->
  <rect x="160" y="30" width="120" height="120" fill="#fff3f3" stroke="#ddd" stroke-width="1" rx="4"/>
  <text x="220" y="50" font-family="sans-serif" font-size="9" fill="#888" text-anchor="middle">Vencimento Base</text>
  <rect x="175" y="56" width="90" height="14" fill="#fff" stroke="#ccc" stroke-width="1" rx="2"/>
  <text x="220" y="66" font-family="monospace" font-size="9" fill="#333" text-anchor="middle">900</text>
  <!-- Slider -->
  <line x1="175" y1="82" x2="265" y2="82" stroke="#ddd" stroke-width="2" stroke-linecap="round"/>
  <circle cx="182" cy="82" r="4" fill="#2196F3"/>
  <!-- Center result bars -->
  <rect x="95" y="100" width="110" height="16" fill="#2196F3" rx="3"/>
  <text x="150" y="112" font-family="monospace" font-size="10" fill="#fff" text-anchor="middle">697.00</text>
  <rect x="95" y="120" width="110" height="16" fill="#E53935" rx="3"/>
  <text x="150" y="132" font-family="monospace" font-size="10" fill="#fff" text-anchor="middle">697.00</text>
  <rect x="95" y="140" width="110" height="16" fill="#757575" rx="3"/>
  <text x="150" y="152" font-family="monospace" font-size="10" fill="#fff" text-anchor="middle">0.00</text>
  <rect x="95" y="160" width="110" height="16" fill="#2E7D32" rx="3"/>
  <text x="150" y="172" font-family="monospace" font-size="10" fill="#fff" text-anchor="middle">0.00</text>
  <text x="150" y="192" font-family="sans-serif" font-size="11" fill="#888" text-anchor="middle">Calculo Salario</text>
</svg>
