<svg xmlns="http://www.w3.org/2000/svg" width="300" height="200" viewBox="0 0 300 200">
  <rect width="300" height="200" fill="#f0f0f0" rx="8"/>
  <rect x="20" y="15" width="260" height="165" fill="#1e1e1e" rx="6"/>
  <text x="150" y="34" font-family="sans-serif" font-size="11" fill="#ccc" text-anchor="middle">ClipX</text>
  <rect x="20" y="40" width="130" height="18" fill="#2a2a2a"/>
  <rect x="150" y="40" width="130" height="18" fill="#333"/>
  <text x="85" y="53" font-family="sans-serif" font-size="9" fill="#888" text-anchor="middle">Pinned</text>
  <text x="215" y="53" font-family="sans-serif" font-size="9" fill="#eee" text-anchor="middle">History</text>
  <rect x="20" y="58" width="260" height="21" fill="#252525"/>
  <rect x="20" y="58" width="3" height="21" fill="#4a9eff"/>
  <text x="30" y="72" font-family="monospace" font-size="8" fill="#ccc">5fuJbx5cAO2V4d2Wn</text>
  <text x="272" y="72" font-family="sans-serif" font-size="11" fill="#f0a500" text-anchor="middle">*</text>
  <rect x="20" y="79" width="260" height="21" fill="#1e1e1e"/>
  <text x="30" y="93" font-family="monospace" font-size="8" fill="#ccc">await invoke("update_shortcut"...</text>
  <text x="272" y="93" font-family="sans-serif" font-size="11" fill="#f0a500" text-anchor="middle">*</text>
  <rect x="20" y="100" width="260" height="21" fill="#252525"/>
  <text x="30" y="114" font-family="monospace" font-size="8" fill="#ccc">cursor: pointer;</text>
  <text x="272" y="114" font-family="sans-serif" font-size="11" fill="#555" text-anchor="middle">*</text>
  <rect x="20" y="121" width="260" height="21" fill="#1e1e1e"/>
  <text x="30" y="135" font-family="monospace" font-size="8" fill="#ccc">tauri_build::build()</text>
  <text x="272" y="135" font-family="sans-serif" font-size="11" fill="#555" text-anchor="middle">*</text>
  <rect x="20" y="142" width="260" height="21" fill="#252525"/>
  <text x="30" y="156" font-family="monospace" font-size="8" fill="#ccc">- logging quality</text>
  <text x="272" y="156" font-family="sans-serif" font-size="11" fill="#555" text-anchor="middle">*</text>
  <text x="150" y="192" font-family="sans-serif" font-size="11" fill="#888" text-anchor="middle">clipx</text>
</svg>
